<svg width="53" height="50" viewBox="0 0 53 50" fill="none" xmlns="http://www.w3.org/2000/svg">
<path d="M13.1579 23.6842C11.6028 23.6842 10.0629 23.3779 8.62612 22.7828C7.18937 22.1877 5.8839 21.3154 4.78426 20.2157C3.68462 19.1161 2.81234 17.8106 2.21722 16.3739C1.62209 14.9371 1.31579 13.3972 1.31579 11.8421C1.31579 10.287 1.62209 8.74708 2.21722 7.31033C2.81234 5.87358 3.68462 4.56811 4.78426 3.46847C5.8839 2.36883 7.18937 1.49655 8.62612 0.901427C10.0629 0.306305 11.6028 -2.31732e-08 13.1579 0C16.2986 4.68004e-08 19.3107 1.24765 21.5315 3.46847C23.7524 5.6893 25 8.70138 25 11.8421C25 14.9828 23.7524 17.9949 21.5315 20.2157C19.3107 22.4366 16.2986 23.6842 13.1579 23.6842ZM40.7895 34.2105C37.9977 34.2105 35.3203 33.1015 33.3462 31.1274C31.3722 29.1534 30.2632 26.476 30.2632 23.6842C30.2632 20.8925 31.3722 18.215 33.3462 16.241C35.3203 14.2669 37.9977 13.1579 40.7895 13.1579C43.5812 13.1579 46.2586 14.2669 48.2327 16.241C50.2068 18.215 51.3158 20.8925 51.3158 23.6842C51.3158 26.476 50.2068 29.1534 48.2327 31.1274C46.2586 33.1015 43.5812 34.2105 40.7895 34.2105ZM40.7895 36.8421C43.9302 36.8421 46.9423 38.0898 49.1631 40.3106C51.3839 42.5314 52.6316 45.5435 52.6316 48.6842V50H28.9474V48.6842C28.9474 45.5435 30.195 42.5314 32.4158 40.3106C34.6367 38.0898 37.6488 36.8421 40.7895 36.8421ZM13.1579 26.3158C14.8858 26.3158 16.5968 26.6561 18.1932 27.3174C19.7896 27.9786 21.2401 28.9478 22.4619 30.1696C23.6838 31.3915 24.653 32.842 25.3142 34.4384C25.9755 36.0348 26.3158 37.7458 26.3158 39.4737V50H0V39.4737C0 35.984 1.38627 32.6372 3.85386 30.1696C6.32144 27.7021 9.6682 26.3158 13.1579 26.3158Z" fill="#13A7BB"/>
</svg>
