<svg width="60" height="50" viewBox="0 0 60 50" fill="none" xmlns="http://www.w3.org/2000/svg">
<path d="M8.33214 28.3708V36.4236C8.33214 38.5155 9.47844 40.4642 11.3125 41.4673L25.6412 49.2907C27.3607 50.2364 29.424 50.2364 31.1434 49.2907L45.4721 41.4673C47.3062 40.4642 48.4525 38.5155 48.4525 36.4236V28.3708L31.1434 37.8278C29.424 38.7735 27.3607 38.7735 25.6412 37.8278L8.33214 28.3708ZM25.6412 0.687778L1.48302 13.8702C-0.49434 14.9592 -0.49434 17.8249 1.48302 18.9139L25.6412 32.0963C27.3607 33.042 29.424 33.042 31.1434 32.0963L54.184 19.5157V36.4522C54.184 38.0284 55.4736 39.318 57.0497 39.318C58.6259 39.318 59.9155 38.0284 59.9155 36.4522V18.0828C59.9155 17.0225 59.3423 16.0768 58.4253 15.561L31.1434 0.687778C30.2967 0.236208 29.3519 0 28.3923 0C27.4327 0 26.4879 0.236208 25.6412 0.687778Z" fill="#13A7BB"/>
</svg>
