<svg width="50" height="50" viewBox="0 0 50 50" fill="none" xmlns="http://www.w3.org/2000/svg">
<path fill-rule="evenodd" clip-rule="evenodd" d="M27.5662 9.18864C27.5662 4.11388 23.4522 0 18.3774 0L17.8732 0.013537C13.0329 0.275293 9.18864 4.28309 9.18864 9.18864C9.18864 14.2635 13.3027 18.3774 18.3774 18.3774L18.8816 18.3638C23.7219 18.1021 27.5662 14.0943 27.5662 9.18864ZM21.0027 39.3803C21.0027 42.2494 21.7698 44.9394 23.1101 47.2563H0V37.805C0 30.1711 5.86618 23.9464 13.2149 23.64L13.783 23.6282H22.9717C25.3633 23.6282 27.6127 24.2547 29.5731 25.3568C24.4845 27.9681 21.0027 33.2676 21.0027 39.3803ZM29.0391 50L36.7548 45.2873L44.4705 50L42.3728 41.2055L49.2391 35.3238L40.2269 34.6013L36.7548 26.2535L33.2827 34.6013L24.2705 35.3238L31.1369 41.2055L29.0391 50Z" fill="#13A7BB"/>
</svg>
