<svg width="63" height="50" viewBox="0 0 63 50" fill="none" xmlns="http://www.w3.org/2000/svg">
<path d="M31.25 25L7.9375 15.6875L9.375 50H3.125L4.625 14.3438L0 12.5L31.25 0L62.5 12.5L31.25 25ZM31.25 9.375C29.5312 9.375 28.125 10.0625 28.125 10.9375C28.125 11.8125 29.5312 12.5 31.25 12.5C32.9688 12.5 34.375 11.8125 34.375 10.9375C34.375 10.0625 32.9688 9.375 31.25 9.375ZM31.25 28.125L48.6562 21.1563C50.875 24.0938 52.4062 27.625 52.9062 31.4688C51.9688 31.3438 51 31.25 50 31.25C42.0312 31.25 35.0625 35.5312 31.25 41.9062C29.3139 38.6594 26.5684 35.9706 23.2818 34.1028C19.9953 32.2349 16.2802 31.252 12.5 31.25C11.5 31.25 10.5312 31.3438 9.59375 31.4688C10.0938 27.625 11.625 24.0938 13.8437 21.1563L31.25 28.125Z" fill="#13A7BB"/>
</svg>
