<svg width="50" height="50" viewBox="0 0 50 50" fill="none" xmlns="http://www.w3.org/2000/svg">
<path d="M45.8886 1.83326L48.1765 4.12118C50.6209 6.56553 50.6209 10.5254 48.1765 12.9697L42.6621 18.4842L31.5158 7.34772L37.0303 1.83326C39.4746 -0.611088 43.4345 -0.611088 45.8788 1.83326H45.8886ZM4.39328 34.48L29.3061 9.55742L40.4524 20.7037L15.5297 45.6165C14.8747 46.2716 14.0534 46.7507 13.1636 47.0049L2.99511 49.9088C2.1738 50.1434 1.29384 49.9186 0.687637 49.3124C0.0814378 48.7062 -0.143443 47.8262 0.0912152 47.0049L2.99511 36.8364C3.24932 35.9369 3.72841 35.1253 4.3835 34.4703L4.39328 34.48ZM24.3881 10.0561L10.1131 24.3311L1.5676 15.7758C-0.260772 13.9475 -0.260772 10.9751 1.5676 9.13699L9.20376 1.51061C11.0321 -0.317766 14.0045 -0.317766 15.8426 1.51061L17.7785 3.44654C17.7492 3.47587 17.7101 3.5052 17.6808 3.53453L11.4232 9.79208C10.817 10.3983 10.817 11.3956 11.4232 12.0018C12.0294 12.608 13.0267 12.608 13.6329 12.0018L19.8905 5.74423C19.9198 5.7149 19.9491 5.67579 19.9785 5.64645L24.3881 10.0561ZM39.9537 25.6217L44.3633 30.0313C44.334 30.0606 44.2949 30.09 44.2656 30.1193L38.008 36.3769C37.4018 36.9831 37.4018 37.9804 38.008 38.5865C38.6142 39.1927 39.6115 39.1927 40.2177 38.5865L46.4752 32.329C46.5046 32.2997 46.5339 32.2606 46.5632 32.2312L48.4992 34.1769C50.3275 36.0053 50.3275 38.9776 48.4992 40.8158L40.863 48.4422C39.0346 50.2706 36.0623 50.2706 34.2242 48.4422L25.6787 39.8967L39.9537 25.6217Z" fill="#13A7BB"/>
</svg>
