<svg width="54" height="50" viewBox="0 0 54 50" fill="none" xmlns="http://www.w3.org/2000/svg">
<path d="M0.66594 37.416C0.378482 36.6642 -0.488315 34.0726 0.371848 32.0383L22.1015 44.5847C22.2124 44.6488 22.3382 44.6825 22.4663 44.6825C22.5944 44.6825 22.7202 44.6488 22.8312 44.5847L53.0695 27.1272V32.3324L22.4663 50L0.66594 37.416ZM0.422706 18.2845C-0.214124 20.2238 0.455874 22.8352 0.696897 23.6489L22.4663 36.2175L53.0695 18.5499V13.3403L22.8312 30.7978C22.7202 30.8618 22.5944 30.8956 22.4663 30.8956C22.3382 30.8956 22.2124 30.8618 22.1015 30.7978L0.422706 18.2845ZM29.5444 14.0036C29.4462 14.0591 29.3366 14.0912 29.224 14.0974C29.1114 14.1037 28.9989 14.0839 28.8951 14.0396C28.7914 13.9954 28.6993 13.9278 28.6259 13.8422C28.5525 13.7566 28.4998 13.6552 28.472 13.5459L27.8528 11.0406L23.1518 10.6514C22.9972 10.6383 22.8509 10.5762 22.7341 10.4742C22.6172 10.3722 22.5358 10.2357 22.5018 10.0844C22.4678 9.93305 22.4829 9.77482 22.5449 9.63265C22.6069 9.49048 22.7126 9.37177 22.8466 9.29374L35.1808 2.17362L31.4173 0L1.54379 17.2475L22.4663 29.3251L52.3398 12.0777L42.6105 6.46117L29.5444 14.0036ZM29.142 10.1804L29.655 12.2546L41.1489 5.6187L36.638 3.01389L25.5974 9.39103L28.4941 9.62984C28.6464 9.64255 28.7908 9.70274 28.907 9.80192C29.0233 9.9011 29.1055 10.0321 29.142 10.1804ZM53.0695 20.2348L22.8312 37.6924C22.7202 37.7564 22.5944 37.7901 22.4663 37.7901C22.3382 37.7901 22.2124 37.7564 22.1015 37.6924L0.371848 25.1482C-0.490526 27.1803 0.378482 29.7718 0.66594 30.5214L22.4663 43.1099L53.0695 25.4422V20.2348Z" fill="#13A7BB"/>
</svg>
