<svg width="45" height="50" viewBox="0 0 45 50" fill="none" xmlns="http://www.w3.org/2000/svg">
<path d="M0 38C0 37.3333 0.219167 36.7708 0.6575 36.3125C1.09583 35.8542 1.62667 35.625 2.25 35.625C2.58333 35.625 2.90667 35.6775 3.22 35.7825C3.53333 35.8875 3.835 36.0433 4.125 36.25C4.66667 36.5833 5.20833 36.875 5.75 37.125C6.29167 37.375 6.875 37.5 7.5 37.5C8.875 37.5 10.0525 37.0108 11.0325 36.0325C12.0125 35.0542 12.5017 33.8767 12.5 32.5C12.4983 31.1233 12.0092 29.9467 11.0325 28.97C10.0558 27.9933 8.87833 27.5033 7.5 27.5C6.875 27.5 6.27083 27.6042 5.6875 27.8125C5.10417 28.0208 4.58333 28.3333 4.125 28.75C3.875 28.9583 3.58333 29.115 3.25 29.22C2.91667 29.325 2.58333 29.3767 2.25 29.375C1.625 29.375 1.09417 29.1458 0.6575 28.6875C0.220833 28.2292 0.00166667 27.6667 0 27V17.5C0 16.7917 0.24 16.1983 0.72 15.72C1.2 15.2417 1.79333 15.0017 2.5 15H11.875C11.6667 14.375 11.5108 13.75 11.4075 13.125C11.3042 12.5 11.2517 11.875 11.25 11.25C11.25 8.125 12.3442 5.46917 14.5325 3.2825C16.7208 1.09583 19.3767 0.00166857 22.5 1.90114e-06C25.6233 -0.00166477 28.28 1.0925 30.47 3.2825C32.66 5.4725 33.7533 8.12833 33.75 11.25C33.75 11.875 33.6983 12.5 33.595 13.125C33.4917 13.75 33.335 14.375 33.125 15H42.5C43.2083 15 43.8025 15.24 44.2825 15.72C44.7625 16.2 45.0017 16.7933 45 17.5V27C45 27.7083 44.76 28.3025 44.28 28.7825C43.8 29.2625 43.2067 29.5017 42.5 29.5C42.1667 29.5 41.875 29.4267 41.625 29.28C41.375 29.1333 41.125 28.9567 40.875 28.75C40.4167 28.3333 39.8958 28.0208 39.3125 27.8125C38.7292 27.6042 38.125 27.5 37.5 27.5C36.125 27.5 34.9475 27.99 33.9675 28.97C32.9875 29.95 32.4983 31.1267 32.5 32.5C32.5017 33.8733 32.9917 35.0508 33.97 36.0325C34.9483 37.0142 36.125 37.5033 37.5 37.5C38.125 37.5 38.7292 37.3958 39.3125 37.1875C39.8958 36.9792 40.4167 36.6667 40.875 36.25C41.0833 36.0417 41.3233 35.8642 41.595 35.7175C41.8667 35.5708 42.1683 35.4983 42.5 35.5C43.2083 35.5 43.8025 35.74 44.2825 36.22C44.7625 36.7 45.0017 37.2933 45 38V47.5C45 48.2083 44.76 48.8025 44.28 49.2825C43.8 49.7625 43.2067 50.0017 42.5 50H2.5C1.79167 50 1.19833 49.76 0.72 49.28C0.241667 48.8 0.00166667 48.2067 0 47.5V38Z" fill="#13A7BB"/>
</svg>
