<svg width="39" height="38" viewBox="0 0 39 38" fill="none" xmlns="http://www.w3.org/2000/svg">
<path d="M36.1503 8.78728C30.4502 -0.000290485 18.8127 -2.61281 9.78759 2.84973C1.00003 8.31227 -1.84999 20.1874 3.85005 28.9749L4.32505 29.6874L2.42504 36.8125L9.55009 34.9125L10.2626 35.3875C13.3501 37.05 16.6751 38 20.0002 38C23.5627 38 27.1252 37.05 30.2127 35.15C39.0003 29.4499 41.6128 17.8123 36.1503 8.78728ZM31.1628 27.0749C30.2127 28.4999 29.0252 29.4499 27.3627 29.6874C26.4127 29.6874 25.2252 30.1624 20.4752 28.2624C16.4376 26.3624 13.1126 23.2749 10.7376 19.7124C9.31259 18.0498 8.60008 15.9123 8.36258 13.7748C8.36258 11.8748 9.07509 10.2123 10.2626 9.02478C10.7376 8.54978 11.2126 8.31227 11.6876 8.31227H12.8751C13.3501 8.31227 13.8251 8.31227 14.0626 9.26228C14.5376 10.4498 15.7251 13.2998 15.7251 13.5373C15.9626 13.7748 15.9626 14.2498 15.7251 14.4873C15.9626 14.9623 15.7251 15.4373 15.4876 15.6748C15.2501 15.9123 15.0126 16.3873 14.7751 16.6248C14.3001 16.8623 14.0626 17.3373 14.3001 17.8123C15.2501 19.2374 16.4376 20.6624 17.6252 21.8499C19.0502 23.0374 20.4752 23.9874 22.1377 24.6999C22.6127 24.9374 23.0877 24.9374 23.3252 24.4624C23.5627 23.9874 24.7502 22.7999 25.2252 22.3249C25.7002 21.8499 25.9377 21.8499 26.4127 22.0874L30.2127 23.9874C30.6878 24.2249 31.1628 24.4624 31.4003 24.6999C31.6378 25.4124 31.6378 26.3624 31.1628 27.0749Z" fill="#213E7D"/>
</svg>
